<svg width="800px" height="800px" version="1.1" viewBox="0 0 24 24" xmlns="http://www.w3.org/2000/svg">
<path d="m4 7c0-1.6568 1.3432-3 3-3h10c1.6569 0 3 1.3432 3 3v10c0 1.6569-1.3431 3-3 3h-10c-1.6568 0-3-1.3431-3-3v-10zm3-1c-0.55228 0-1 0.44772-1 1v4h5v-5h-4zm6 0v5h5v-4c0-0.55228-0.4477-1-1-1h-4zm5 7h-5v5h4c0.5523 0 1-0.4477 1-1v-4zm-7 5v-5h-5v4c0 0.5523 0.44772 1 1 1h4z" clip-rule="evenodd" fill="#831843" fill-rule="evenodd"/>
<path transform="scale(.03)" d="m200.17 296.82 0.25314-69.703 1.9776-4.9003c3.9395-9.7614 11.739-17.16 21.204-20.114 5.1843-1.618 7.9512-1.6809 73.941-1.6809h68.555v166.1h-166.18z" fill="#fff" stroke-width="28.248"/>
<path transform="scale(.03)" d="m433.9 283.47v-83.051h68.555c65.989 0 68.756 0.0629 73.941 1.6809 9.4655 2.9542 17.265 10.352 21.204 20.114l1.9776 4.9003 0.25314 69.703 0.25315 69.703h-166.18z" fill="#fff" stroke-width="28.248"/>
<path transform="scale(.03)" d="m224.6 598.22c-12.701-3.4133-22.053-14.468-23.819-28.152-0.40158-3.1132-0.74261-35.12-0.75786-71.126l-0.02773-65.466h166.1v166.1l-68.432-0.0558c-57.397-0.0468-69.179-0.25656-73.065-1.3009z" fill="#fff" stroke-width="28.248"/>
<path transform="scale(.03)" d="m433.9 516.55v-83.074h166.18l-0.25315 69.703-0.25314 69.703-1.9776 4.9003c-2.5171 6.2369-6.2982 11.187-11.619 15.211-8.6177 6.5174-3.5724 6.124-81.954 6.3914l-70.127 0.2393z" fill="#fff" stroke-width="28.248"/>
</svg>
